<svg xmlns="http://www.w3.org/2000/svg" style="display:none">
<symbol id="nav-home" viewBox="0 0 24 24" fill="none" stroke="currentColor" stroke-width="1.6" stroke-linecap="round" stroke-linejoin="round"><path d="M4 11.5 12 5l8 6.5"/><path d="M6 10.5V19h12v-8.5"/><path d="M10 19v-4.5h4V19"/></symbol>
<symbol id="nav-about" viewBox="0 0 24 24" fill="none" stroke="currentColor" stroke-width="1.6" stroke-linecap="round" stroke-linejoin="round"><circle cx="12" cy="9" r="3.2"/><path d="M5.5 19a6.5 6.5 0 0 1 13 0"/></symbol>
<symbol id="nav-skills" viewBox="0 0 24 24" fill="none" stroke="currentColor" stroke-width="1.6" stroke-linecap="round" stroke-linejoin="round"><rect x="3" y="8" width="18" height="9" rx="4.5"/><path d="M7.5 11.2v2.6M6.2 12.5h2.6"/><circle cx="15.5" cy="11.8" r="0.95" fill="currentColor" stroke="none"/><circle cx="17.6" cy="13.4" r="0.95" fill="currentColor" stroke="none"/></symbol>
<symbol id="nav-portfolio" viewBox="0 0 24 24" fill="none" stroke="currentColor" stroke-width="1.6" stroke-linecap="round" stroke-linejoin="round"><path d="M12 3.5 3.5 8l8.5 4.5L20.5 8 12 3.5z"/><path d="M3.5 12.5 12 17l8.5-4.5"/><path d="M3.5 16.5 12 21l8.5-4.5"/></symbol>
<symbol id="nav-contact" viewBox="0 0 24 24" fill="none" stroke="currentColor" stroke-width="1.6" stroke-linecap="round" stroke-linejoin="round"><rect x="3.5" y="5.5" width="17" height="13" rx="2.5"/><path d="M4.2 7.2 12 13l7.8-5.8"/></symbol>
</svg>
