<svg xmlns="http://www.w3.org/2000/svg" style="display:none"><symbol id="proj-eggtalk" viewBox="0 0 24 24" fill="none" stroke="currentColor" stroke-width="1.6" stroke-linecap="round" stroke-linejoin="round"><ellipse cx="12" cy="13" rx="7.5" ry="9"/><path d="M9 10.5h6a2 2 0 0 1 2 2v0a2 2 0 0 1-2 2h-2.5l-2 1.6v-1.6H9a2 2 0 0 1-2-2v0a2 2 0 0 1 2-2z" fill="#14141d"/><circle cx="10.4" cy="12.5" r="0.8" fill="currentColor" stroke="none"/><circle cx="13.6" cy="12.5" r="0.8" fill="currentColor" stroke="none"/></symbol><symbol id="proj-flowfit" viewBox="0 0 24 24" fill="none" stroke="currentColor" stroke-width="1.6" stroke-linecap="round" stroke-linejoin="round"><rect x="9.5" y="3.5" width="5" height="5" rx="1.2"/><rect x="3.5" y="15.5" width="5" height="5" rx="1.2"/><rect x="9.5" y="15.5" width="5" height="5" rx="1.2"/><rect x="15.5" y="15.5" width="5" height="5" rx="1.2"/><path d="M12 8.5v3.5M12 12h-6v3.5M12 12h6v3.5M12 12v3.5" /><circle cx="12" cy="12" r="0.9" fill="currentColor" stroke="none"/></symbol><symbol id="proj-kiwofarm" viewBox="0 0 24 24" fill="none" stroke="currentColor" stroke-width="1.6" stroke-linecap="round" stroke-linejoin="round"><path d="M12 21v-9"/><path d="M12 12c0-3.5-3-6-6.5-6 0 3.5 3 6 6.5 6z"/><path d="M12 13.5c0-2.8 2.4-5 5.5-5 0 2.8-2.4 5-5.5 5z"/><circle cx="18.5" cy="5.5" r="1.4" fill="currentColor" stroke="none"/><path d="M18.5 5.5h2M18.5 5.5h-2M18.5 5.5v-2M18.5 5.5v2" stroke-width="1.1"/></symbol></svg>