<svg xmlns="http://www.w3.org/2000/svg" style="display:none"><symbol id="skill-llm" viewBox="0 0 24 24" fill="none" stroke="currentColor" stroke-width="1.7" stroke-linecap="round" stroke-linejoin="round"><path d="M4 6h11a3 3 0 0 1 3 3v4a3 3 0 0 1-3 3h-5l-4 3v-3a3 3 0 0 1-3-3V9a3 3 0 0 1 3-3z"/><circle cx="8.5" cy="11" r="0.9" fill="currentColor" stroke="none"/><circle cx="11.5" cy="11" r="0.9" fill="currentColor" stroke="none"/><circle cx="14.5" cy="11" r="0.9" fill="currentColor" stroke="none"/><path d="M19.6 2.6l.6 1.5 1.5.6-1.5.6-.6 1.5-.6-1.5-1.5-.6 1.5-.6z" fill="currentColor" stroke="none"/></symbol><symbol id="skill-rag" viewBox="0 0 24 24" fill="none" stroke="currentColor" stroke-width="1.7" stroke-linecap="round" stroke-linejoin="round"><path d="M7 3h6l4 4v9"/><path d="M7 3v17a1 1 0 0 0 1 1h5"/><line x1="9.5" y1="7" x2="13" y2="7"/><line x1="9.5" y1="10" x2="14" y2="10"/><circle cx="15.5" cy="16" r="3.2"/><line x1="17.8" y1="18.3" x2="20.5" y2="21"/></symbol><symbol id="skill-agent" viewBox="0 0 24 24" fill="none" stroke="currentColor" stroke-width="1.7" stroke-linecap="round" stroke-linejoin="round"><rect x="5" y="8" width="14" height="11" rx="3"/><line x1="12" y1="4.5" x2="12" y2="8"/><circle cx="12" cy="3.3" r="1.2"/><circle cx="9.5" cy="13" r="1.2" fill="currentColor" stroke="none"/><circle cx="14.5" cy="13" r="1.2" fill="currentColor" stroke="none"/><line x1="9.8" y1="16.3" x2="14.2" y2="16.3"/><line x1="3" y1="12" x2="5" y2="12"/><line x1="19" y1="12" x2="21" y2="12"/></symbol><symbol id="skill-vlm" viewBox="0 0 24 24" fill="none" stroke="currentColor" stroke-width="1.7" stroke-linecap="round" stroke-linejoin="round"><path d="M2.5 12C5 7.5 10 7.5 12.5 12C10 16.5 5 16.5 2.5 12Z"/><circle cx="7.5" cy="12" r="2" fill="currentColor" stroke="none"/><line x1="16" y1="9" x2="21.5" y2="9"/><line x1="16" y1="12" x2="21.5" y2="12"/><line x1="16" y1="15" x2="19.5" y2="15"/></symbol><symbol id="skill-react" viewBox="0 0 24 24" fill="none" stroke="currentColor" stroke-width="1.7" stroke-linecap="round" stroke-linejoin="round"><circle cx="12" cy="12" r="1.7" fill="currentColor" stroke="none"/><path d="M22.3 12.0 C22.3 14.15 17.69 15.9 12.0 15.9 C6.31 15.9 1.7 14.15 1.7 12.0 C1.7 9.85 6.31 8.1 12.0 8.1 C17.69 8.1 22.3 9.85 22.3 12.0 Z"/><path d="M17.15 20.92 C15.28 22.0 11.47 18.88 8.62 13.95 C5.78 9.02 4.98 4.16 6.85 3.08 C8.72 2.0 12.53 5.12 15.38 10.05 C18.22 14.98 19.02 19.84 17.15 20.92 Z"/><path d="M6.85 20.92 C4.98 19.84 5.78 14.98 8.62 10.05 C11.47 5.12 15.28 2.0 17.15 3.08 C19.02 4.16 18.22 9.02 15.38 13.95 C12.53 18.88 8.72 22.0 6.85 20.92 Z"/></symbol><symbol id="skill-fastapi" viewBox="0 0 24 24" fill="none" stroke="currentColor" stroke-width="1.7" stroke-linecap="round" stroke-linejoin="round"><path d="M13 2L4 14h6v8l9-12h-6l2-8z"/></symbol><symbol id="skill-nodejs" viewBox="0 0 24 24" fill="none" stroke="currentColor" stroke-width="1.7" stroke-linecap="round" stroke-linejoin="round"><path d="M12 2.5L20 7v10l-8 4.5L4 17V7z"/><path d="M9 15.5v-6l6 5.5v-6"/></symbol><symbol id="skill-socketio" viewBox="0 0 24 24" fill="none" stroke="currentColor" stroke-width="1.7" stroke-linecap="round" stroke-linejoin="round"><path d="M4 9h13"/><path d="M14 6l3 3-3 3"/><path d="M20 15H7"/><path d="M10 12l-3 3 3 3"/></symbol><symbol id="skill-vectordb" viewBox="0 0 24 24" fill="none" stroke="currentColor" stroke-width="1.7" stroke-linecap="round" stroke-linejoin="round"><ellipse cx="12" cy="6" rx="7" ry="3"/><path d="M5 6v12c0 1.7 3.1 3 7 3s7-1.3 7-3V6"/><path d="M5 12c0 1.7 3.1 3 7 3s7-1.3 7-3"/></symbol><symbol id="skill-cpp" viewBox="0 0 24 24" fill="none" stroke="currentColor" stroke-width="1.7" stroke-linecap="round" stroke-linejoin="round"><path d="M8 7l-5 5 5 5"/><path d="M16 7l5 5-5 5"/><line x1="13.5" y1="5" x2="10.5" y2="19"/></symbol><symbol id="skill-optimize" viewBox="0 0 24 24" fill="none" stroke="currentColor" stroke-width="1.7" stroke-linecap="round" stroke-linejoin="round"><line x1="4" y1="7" x2="20" y2="7"/><line x1="4" y1="12" x2="20" y2="12"/><line x1="4" y1="17" x2="20" y2="17"/><circle cx="9" cy="7" r="2.1" fill="#0e0e16"/><circle cx="15" cy="12" r="2.1" fill="#0e0e16"/><circle cx="11" cy="17" r="2.1" fill="#0e0e16"/></symbol><symbol id="skill-latency" viewBox="0 0 24 24" fill="none" stroke="currentColor" stroke-width="1.7" stroke-linecap="round" stroke-linejoin="round"><circle cx="12" cy="14" r="7"/><line x1="10" y1="3" x2="14" y2="3"/><line x1="12" y1="3" x2="12" y2="5.5"/><path d="M12.8 10.5l-2.3 4.2h2.2l-1 3.3"/></symbol></svg>